# xmcd
#
# Track frame offsets:
#	150
#	16063
#	30552
#	46969
#	61384
#	77158
#	89197
#	106663
#	122342
#	139643
#	157484
#	172447
#	184857
#
# Disc length: 2678 seconds
#
# Revision: 1
# Processed by: cddbd v1.5.2PL0 Copyright (c) Steve Scherf et al.
# Submitted via: audiograbber 1.83.01
#
DISCID=af0a740d
DTITLE=Various Artist - CDX 659
DYEAR=2018
DGENRE=Country
TTITLE0=Travis Denning - David Ashley Parker From Powder Springs
TTITLE1=Kelsea Ballerini - I Hate Love Songs
TTITLE2=Steve Free - Down The Road
TTITLE3=Melissa Mickelson ft. 3 and Twenty - Hold On
TTITLE4=Jodee Lewis - It Ain't Killed Me Yet
TTITLE5=Amy Jack - Jack Of All Trades
TTITLE6=Michael Peterson - Lookin' For Love
TTITLE7=Lucas Hoge - Power Of Garth
TTITLE8=Stephanie Quayle - Selfish
TTITLE9=Bubba T - Texting Texas
TTITLE10=Rusty Rierson - That's How Sure I Am
TTITLE11=Sarah Patrick - The Woman I Am
TTITLE12=Alex Day - Won't Be Loved
EXTD=
EXTT0=
EXTT1=
EXTT2=
EXTT3=
EXTT4=
EXTT5=
EXTT6=
EXTT7=
EXTT8=
EXTT9=
EXTT10=
EXTT11=
EXTT12=
PLAYORDER=
